<svg width="10" height="10" viewBox="0 0 10 10" fill="none" xmlns="http://www.w3.org/2000/svg">
<g clip-path="url(#clip0_79_1671)">
<path d="M3.77334 7.99374L0.988183 5.22421C0.97212 5.20823 0.959374 5.18924 0.950676 5.16833C0.941978 5.14741 0.9375 5.12498 0.9375 5.10233C0.9375 5.07968 0.941978 5.05725 0.950676 5.03633C0.959374 5.01542 0.97212 4.99643 0.988183 4.98046L1.69131 4.27655C1.7585 4.20936 1.86709 4.20936 1.93428 4.27655L3.76787 6.09921C3.83506 6.16639 3.94443 6.16561 4.01162 6.09842L8.06318 2.0078C8.13037 1.93983 8.23975 1.93983 8.30771 2.00702L9.01162 2.71093C9.07881 2.77811 9.07881 2.88671 9.0124 2.95389L4.59834 7.4078L4.59912 7.40858L4.01709 7.99374C3.9499 8.06093 3.84053 8.06093 3.77334 7.99374Z" fill="#FCB500" stroke="#FCB500" stroke-miterlimit="10"/>
</g>
<defs>
<clipPath id="clip0_79_1671">
<rect width="10" height="10" fill="white"/>
</clipPath>
</defs>
</svg>
